<?xml version="1.0" encoding="UTF-8" standalone="no"?>
<svg
   xmlns:dc="http://purl.org/dc/elements/1.1/"
   xmlns:cc="http://creativecommons.org/ns#"
   xmlns:rdf="http://www.w3.org/1999/02/22-rdf-syntax-ns#"
   xmlns:svg="http://www.w3.org/2000/svg"
   xmlns="http://www.w3.org/2000/svg"
   xmlns:xlink="http://www.w3.org/1999/xlink"
   xmlns:sodipodi="http://sodipodi.sourceforge.net/DTD/sodipodi-0.dtd"
   xmlns:inkscape="http://www.inkscape.org/namespaces/inkscape"
   width="593.10999"
   height="550.08002"
   viewBox="0 0 593.10999 550.08002"
   version="1.1"
   id="svg177"
   sodipodi:docname="processus_fichiers_z.svg"
   inkscape:version="0.92.3 (2405546, 2018-03-11)">
  <metadata
     id="metadata181">
    <rdf:RDF>
      <cc:Work
         rdf:about="">
        <dc:format>image/svg+xml</dc:format>
        <dc:type
           rdf:resource="http://purl.org/dc/dcmitype/StillImage" />
        <dc:title></dc:title>
      </cc:Work>
    </rdf:RDF>
  </metadata>
  <sodipodi:namedview
     pagecolor="#ffffff"
     bordercolor="#666666"
     borderopacity="1"
     objecttolerance="10"
     gridtolerance="10"
     guidetolerance="10"
     inkscape:pageopacity="0"
     inkscape:pageshadow="2"
     inkscape:window-width="1920"
     inkscape:window-height="1011"
     id="namedview179"
     showgrid="false"
     fit-margin-top="0"
     fit-margin-left="0"
     fit-margin-right="0"
     fit-margin-bottom="0"
     inkscape:zoom="1.1856284"
     inkscape:cx="184.98704"
     inkscape:cy="517.99079"
     inkscape:window-x="0"
     inkscape:window-y="0"
     inkscape:window-maximized="1"
     inkscape:current-layer="page1" />
  <style
     type="text/css"
     id="style2"><![CDATA[
.st2 {fill:#303030}
.st1 {fill:#436f8e;font-family:Calibri;font-size:10pt}
]]></style>
  <defs
     id="defs31">
    <linearGradient
       y2="78"
       x2="145"
       x1="11"
       gradientUnits="userSpaceOnUse"
       y1="-16"
       id="lg1">
      <stop
         offset="0"
         stop-color="#c7daec"
         id="stop4" />
      <stop
         offset="0.6"
         stop-color="#c7daec"
         id="stop6" />
      <stop
         offset="0.6"
         stop-color="#d4e2f0"
         id="stop8" />
      <stop
         offset="1"
         stop-color="#d4e2f0"
         id="stop10" />
    </linearGradient>
    <linearGradient
       y2="78"
       x2="145"
       x1="11"
       gradientUnits="userSpaceOnUse"
       y1="-16"
       id="lg2">
      <stop
         offset="0"
         stop-color="#bcdcc3"
         id="stop13" />
      <stop
         offset="0.6"
         stop-color="#bcdcc3"
         id="stop15" />
      <stop
         offset="0.6"
         stop-color="#cbe3d1"
         id="stop17" />
      <stop
         offset="1"
         stop-color="#cbe3d1"
         id="stop19" />
    </linearGradient>
    <linearGradient
       y2="78"
       x2="145"
       x1="11"
       gradientUnits="userSpaceOnUse"
       y1="-16"
       id="lg3">
      <stop
         offset="0"
         stop-color="#f2c2bd"
         id="stop22" />
      <stop
         offset="0.6"
         stop-color="#f2c2bd"
         id="stop24" />
      <stop
         offset="0.6"
         stop-color="#f4d0cc"
         id="stop26" />
      <stop
         offset="1"
         stop-color="#f4d0cc"
         id="stop28" />
    </linearGradient>
    <linearGradient
       inkscape:collect="always"
       xlink:href="#lg1"
       id="linearGradient4920"
       gradientUnits="userSpaceOnUse"
       x1="11"
       y1="-16"
       x2="145"
       y2="78" />
    <linearGradient
       inkscape:collect="always"
       xlink:href="#lg2"
       id="linearGradient4922"
       gradientUnits="userSpaceOnUse"
       x1="11"
       y1="-16"
       x2="145"
       y2="78" />
    <linearGradient
       inkscape:collect="always"
       xlink:href="#lg1"
       id="linearGradient4924"
       gradientUnits="userSpaceOnUse"
       x1="11"
       y1="-16"
       x2="145"
       y2="78" />
    <linearGradient
       inkscape:collect="always"
       xlink:href="#lg1"
       id="linearGradient4926"
       gradientUnits="userSpaceOnUse"
       x1="11"
       y1="-16"
       x2="145"
       y2="78" />
    <linearGradient
       inkscape:collect="always"
       xlink:href="#lg1"
       id="linearGradient4928"
       gradientUnits="userSpaceOnUse"
       x1="11"
       y1="-16"
       x2="145"
       y2="78" />
    <linearGradient
       inkscape:collect="always"
       xlink:href="#lg2"
       id="linearGradient4930"
       gradientUnits="userSpaceOnUse"
       x1="11"
       y1="-16"
       x2="145"
       y2="78" />
  </defs>
  <g
     transform="translate(-1.45,-1.55)"
     id="page1">
    <g
       transform="translate(219.95,2.05)"
       id="g44">
      <g
         id="shape1">
        <path
           d="m 32.8,63.5 h 94.7 c 17,0 30.8,-13.8 30.8,-30.7 C 158.3,15.8 144.5,2 127.5,2 H 32.8 C 15.8,2 2,15.8 2,32.8 2,49.7 15.8,63.5 32.8,63.5 Z"
           id="path35"
           inkscape:connector-curvature="0"
           style="fill:#bebebe;fill-opacity:0.5" />
        <path
           d="m 30.8,61.5 h 94.7 c 17,0 30.8,-13.8 30.8,-30.7 C 156.3,13.8 142.5,0 125.5,0 H 30.8 C 13.8,0 0,13.8 0,30.8 0,47.7 13.8,61.5 30.8,61.5 Z"
           id="path37"
           inkscape:connector-curvature="0"
           style="fill:url(#linearGradient4920);stroke:#5b94bd" />
      </g>
      <text
         class="st1"
         id="text42"
         style="font-size:13.33333302px;font-family:Calibri;fill:#436f8e">
        <tspan
           x="29.200001"
           class="st2"
           y="33.799999"
           id="tspan40"
           style="fill:#303030">z1_fichier_pilote.R</tspan>
      </text>
    </g>
    <g
       transform="translate(298.11,63.57)"
       id="shape2">
      <path
         d="M 0,0 V 55.6"
         id="path46"
         inkscape:connector-curvature="0"
         style="fill:none;stroke:#4a7b9e" />
      <path
         d="m 0,60 3,-5.2 c -0.9,0.5 -1.9,0.8 -3,0.8 -1.1,0 -2.1,-0.3 -3,-0.8 L 0,60"
         id="path48"
         inkscape:connector-curvature="0"
         style="fill:#4a7b9e;stroke:#4a7b9e;stroke-width:1;stroke-linecap:round" />
      <rect
         width="141"
         x="-149.10001"
         height="16"
         y="6"
         id="rect50"
         style="fill:#ffffff" />
      <text
         class="st1"
         id="text54"
         style="font-size:13.33333302px;font-family:Calibri;fill:#436f8e">
        <tspan
           x="-149.3"
           y="17"
           id="tspan52">verification_packages == 1</tspan>
      </text>
    </g>
    <g
       transform="translate(219.95,123.57)"
       id="g66">
      <g
         id="shape3">
        <path
           d="m 32.8,63.5 h 94.7 c 17,0 30.8,-13.8 30.8,-30.7 C 158.3,15.8 144.5,2 127.5,2 H 32.8 C 15.8,2 2,15.8 2,32.8 2,49.7 15.8,63.5 32.8,63.5 Z"
           id="path57"
           inkscape:connector-curvature="0"
           style="fill:#bebebe;fill-opacity:0.5" />
        <path
           d="m 30.8,61.5 h 94.7 c 17,0 30.8,-13.8 30.8,-30.7 C 156.3,13.8 142.5,0 125.5,0 H 30.8 C 13.8,0 0,13.8 0,30.8 0,47.7 13.8,61.5 30.8,61.5 Z"
           id="path59"
           inkscape:connector-curvature="0"
           style="fill:url(#linearGradient4922);stroke:#5b94bd" />
      </g>
      <text
         class="st1"
         id="text64"
         style="font-size:13.33333302px;font-family:Calibri;fill:#436f8e">
        <tspan
           x="27.200001"
           class="st2"
           y="33.799999"
           id="tspan62"
           style="fill:#303030">0_verif_packages.R</tspan>
      </text>
    </g>
    <g
       transform="translate(298.11,185.09)"
       id="shape4">
      <path
         d="M 0,0 V 55.6"
         id="path68"
         inkscape:connector-curvature="0"
         style="fill:none;stroke:#4a7b9e" />
      <path
         d="m 0,60 3,-5.2 c -0.9,0.5 -1.9,0.8 -3,0.8 -1.1,0 -2.1,-0.3 -3,-0.8 L 0,60"
         id="path70"
         inkscape:connector-curvature="0"
         style="fill:#4a7b9e;stroke:#4a7b9e;stroke-width:1;stroke-linecap:round" />
    </g>
    <g
       transform="translate(219.95,245.09)"
       id="g82">
      <g
         id="shape5">
        <path
           d="m 32.8,63.5 h 94.7 c 17,0 30.8,-13.8 30.8,-30.7 C 158.3,15.8 144.5,2 127.5,2 H 32.8 C 15.8,2 2,15.8 2,32.8 2,49.7 15.8,63.5 32.8,63.5 Z"
           id="path73"
           inkscape:connector-curvature="0"
           style="fill:#bebebe;fill-opacity:0.5" />
        <path
           d="m 30.8,61.5 h 94.7 c 17,0 30.8,-13.8 30.8,-30.7 C 156.3,13.8 142.5,0 125.5,0 H 30.8 C 13.8,0 0,13.8 0,30.8 0,47.7 13.8,61.5 30.8,61.5 Z"
           id="path75"
           inkscape:connector-curvature="0"
           style="fill:url(#linearGradient4924);stroke:#5b94bd" />
      </g>
      <text
         class="st1"
         id="text80"
         style="font-size:13.33333302px;font-family:Calibri;fill:#436f8e">
        <tspan
           x="14.2"
           class="st2"
           y="33.799999"
           id="tspan78"
           style="fill:#303030">z2_code_independant.R</tspan>
      </text>
    </g>
    <g
       transform="translate(298.11,306.61)"
       id="shape6">
      <path
         d="M 0,0 V 55.6"
         id="path84"
         inkscape:connector-curvature="0"
         style="fill:none;stroke:#4a7b9e" />
      <path
         d="m 0,60 3,-5.2 c -0.9,0.5 -1.9,0.8 -3,0.8 -1.1,0 -2.1,-0.3 -3,-0.8 L 0,60"
         id="path86"
         inkscape:connector-curvature="0"
         style="fill:#4a7b9e;stroke:#4a7b9e;stroke-width:1;stroke-linecap:round" />
    </g>
    <g
       transform="translate(219.95,366.61)"
       id="g98">
      <g
         id="shape7">
        <path
           d="m 32.8,63.5 h 94.7 c 17,0 30.8,-13.8 30.8,-30.7 C 158.3,15.8 144.5,2 127.5,2 H 32.8 C 15.8,2 2,15.8 2,32.8 2,49.7 15.8,63.5 32.8,63.5 Z"
           id="path89"
           inkscape:connector-curvature="0"
           style="fill:#bebebe;fill-opacity:0.5" />
        <path
           d="m 30.8,61.5 h 94.7 c 17,0 30.8,-13.8 30.8,-30.7 C 156.3,13.8 142.5,0 125.5,0 H 30.8 C 13.8,0 0,13.8 0,30.8 0,47.7 13.8,61.5 30.8,61.5 Z"
           id="path91"
           inkscape:connector-curvature="0"
           style="fill:url(#linearGradient4926);stroke:#5b94bd" />
      </g>
      <text
         class="st1"
         id="text96"
         style="font-size:13.33333302px;font-family:Calibri;fill:#436f8e">
        <tspan
           x="29.200001"
           class="st2"
           y="33.799999"
           id="tspan94"
           style="fill:#303030">z3_calcul_centre.R</tspan>
      </text>
    </g>
    <g
       transform="translate(298.11,428.13)"
       id="shape8">
      <path
         d="M 0,0 V 55.6"
         id="path100"
         inkscape:connector-curvature="0"
         style="fill:none;stroke:#4a7b9e" />
      <path
         d="m 0,60 3,-5.2 c -0.9,0.5 -1.9,0.8 -3,0.8 -1.1,0 -2.1,-0.3 -3,-0.8 L 0,60"
         id="path102"
         inkscape:connector-curvature="0"
         style="fill:#4a7b9e;stroke:#4a7b9e;stroke-width:1;stroke-linecap:round" />
    </g>
    <g
       transform="translate(219.95,488.13)"
       id="g116">
      <g
         id="shape9">
        <path
           d="m 32.8,63.5 h 94.7 c 17,0 30.8,-13.8 30.8,-30.7 C 158.3,15.8 144.5,2 127.5,2 H 32.8 C 15.8,2 2,15.8 2,32.8 2,49.7 15.8,63.5 32.8,63.5 Z"
           id="path105"
           inkscape:connector-curvature="0"
           style="fill:#bebebe;fill-opacity:0.5" />
        <path
           d="m 30.8,61.5 h 94.7 c 17,0 30.8,-13.8 30.8,-30.7 C 156.3,13.8 142.5,0 125.5,0 H 30.8 C 13.8,0 0,13.8 0,30.8 0,47.7 13.8,61.5 30.8,61.5 Z"
           id="path107"
           inkscape:connector-curvature="0"
           style="fill:url(#linearGradient4928);stroke:#5b94bd" />
      </g>
      <text
         class="st1"
         id="text114"
         style="font-size:13.33333302px;font-family:Calibri;fill:#436f8e">
        <tspan
           x="10.2"
           class="st2"
           y="25.799999"
           id="tspan110"
           style="fill:#303030">z4_donnees_complement</tspan>
        <tspan
           x="44.200001"
           class="st2"
           y="41.799999"
           id="tspan112"
           style="fill:#303030">aires_carte.R</tspan>
      </text>
    </g>
    <g
       transform="translate(376.26,32.81)"
       id="shape10">
      <path
         d="M 0,0 H 113 V 243 H 4.4"
         id="path118"
         inkscape:connector-curvature="0"
         style="fill:none;stroke:#4a7b9e" />
      <path
         d="m 0,243 5.2,3 c -0.5,-0.8 -0.8,-1.9 -0.8,-3 0,-1.1 0.3,-2.1 0.8,-3 L 0,243"
         id="path120"
         inkscape:connector-curvature="0"
         style="fill:#4a7b9e;stroke:#4a7b9e;stroke-width:1;stroke-linecap:round" />
      <rect
         width="141"
         x="10.7"
         height="16"
         y="-20.200001"
         id="rect122"
         style="fill:#ffffff" />
      <text
         class="st1"
         id="text126"
         style="font-size:13.33333302px;font-family:Calibri;fill:#436f8e">
        <tspan
           x="10.6"
           y="-9.1999998"
           id="tspan124">verification_packages == 0</tspan>
      </text>
    </g>
    <g
       transform="translate(219.95,275.85)"
       id="shape11">
      <path
         d="M 0,0 H -139.8 V 22.6"
         id="path129"
         inkscape:connector-curvature="0"
         style="fill:none;stroke:#4a7b9e" />
      <path
         d="m -139.8,27 3,-5.2 c -0.9,0.5 -2,0.8 -3,0.8 -1.1,0 -2.2,-0.3 -3,-0.8 l 3,5.2"
         id="path131"
         inkscape:connector-curvature="0"
         style="fill:#4a7b9e;stroke:#4a7b9e;stroke-width:1;stroke-linecap:round" />
      <rect
         width="107.3"
         x="-128.3"
         height="16"
         y="-17.299999"
         id="rect133"
         style="fill:#ffffff" />
      <text
         class="st1"
         id="text137"
         style="font-size:13.33333302px;font-family:Calibri;fill:#436f8e">
        <tspan
           x="-128.39999"
           y="-6.3000002"
           id="tspan135">importer_carte == 1</tspan>
      </text>
    </g>
    <g
       transform="translate(1.95,302.81)"
       id="g151">
      <g
         id="shape12">
        <path
           d="m 32.8,63.5 h 94.7 c 17,0 30.8,-13.8 30.8,-30.7 C 158.3,15.8 144.5,2 127.5,2 H 32.8 C 15.8,2 2,15.8 2,32.8 2,49.7 15.8,63.5 32.8,63.5 Z"
           id="path140"
           inkscape:connector-curvature="0"
           style="fill:#bebebe;fill-opacity:0.5" />
        <path
           d="m 30.8,61.5 h 94.7 c 17,0 30.8,-13.8 30.8,-30.7 C 156.3,13.8 142.5,0 125.5,0 H 30.8 C 13.8,0 0,13.8 0,30.8 0,47.7 13.8,61.5 30.8,61.5 Z"
           id="path142"
           inkscape:connector-curvature="0"
           style="fill:url(#linearGradient4930);stroke:#5b94bd" />
      </g>
      <text
         class="st1"
         id="text149"
         style="font-size:13.33333302px;font-family:Calibri;fill:#436f8e">
        <tspan
           x="12.2"
           class="st2"
           y="25.799999"
           id="tspan145"
           style="fill:#303030">Importation des données</tspan>
        <tspan
           x="35.200001"
           class="st2"
           y="41.799999"
           id="tspan147"
           style="fill:#303030">cartographiques</tspan>
      </text>
    </g>
    <g
       transform="translate(158.26,333.57)"
       id="shape13">
      <path
         d="M 0,0 H 134.6"
         id="path153"
         inkscape:connector-curvature="0"
         style="fill:none;stroke:#4a7b9e" />
      <path
         d="m 139,0 -5.2,-3 c 0.5,0.9 0.8,1.9 0.8,3 0,1.1 -0.3,2.1 -0.8,3 L 139,0"
         id="path155"
         inkscape:connector-curvature="0"
         style="fill:#4a7b9e;stroke:#4a7b9e;stroke-width:1;stroke-linecap:round" />
    </g>
    <g
       transform="translate(376.26,518.89)"
       id="shape14">
      <path
         d="M 0,0 H 55.6"
         id="path158"
         inkscape:connector-curvature="0"
         style="fill:none;stroke:#4a7b9e" />
      <path
         d="m 60,0 -5.2,-3 c 0.5,0.9 0.8,1.9 0.8,3 0,1.1 -0.3,2.1 -0.8,3 L 60,0"
         id="path160"
         inkscape:connector-curvature="0"
         style="fill:#4a7b9e;stroke:#4a7b9e;stroke-width:1;stroke-linecap:round" />
    </g>
    <g
       transform="translate(436.26,488.13)"
       id="g174">
      <g
         id="shape15">
        <path
           d="m 32.8,63.5 h 94.7 c 17,0 30.8,-13.8 30.8,-30.7 C 158.3,15.8 144.5,2 127.5,2 H 32.8 C 15.8,2 2,15.8 2,32.8 2,49.7 15.8,63.5 32.8,63.5 Z"
           id="path163"
           inkscape:connector-curvature="0"
           style="fill:#bebebe;fill-opacity:0.5" />
        <path
           d="m 30.8,61.5 h 94.7 c 17,0 30.8,-13.8 30.8,-30.7 C 156.3,13.8 142.5,0 125.5,0 H 30.8 C 13.8,0 0,13.8 0,30.8 0,47.7 13.8,61.5 30.8,61.5 Z"
           id="path165"
           inkscape:connector-curvature="0"
           style="fill:url(#lg3);stroke:#5b94bd" />
      </g>
      <text
         class="st1"
         id="text172"
         style="font-size:13.33333302px;font-family:Calibri;fill:#436f8e">
        <tspan
           x="17.200001"
           class="st2"
           y="25.799999"
           id="tspan168"
           style="fill:#303030">Bases de données pour</tspan>
        <tspan
           x="30.200001"
           class="st2"
           y="41.799999"
           id="tspan170"
           style="fill:#303030">l'application Shiny</tspan>
      </text>
    </g>
  </g>
</svg>
